<?xml version="1.0" encoding="UTF-8"?>
<svg id="_레이어_1" data-name="레이어 1" xmlns="http://www.w3.org/2000/svg" viewBox="0 0 1000 200">
  <defs>
    <style>
      .cls-1 {
        letter-spacing: -.07em;
      }

      .cls-2 {
        fill: #fff;
      }

      .cls-2, .cls-3 {
        stroke-width: 0px;
      }

      .cls-4 {
        font-family: LGSmartUI-Light, 'LG Smart UI';
        font-size: 93.55px;
        font-weight: 300;
      }

      .cls-3 {
        fill: #28c51a;
      }
    </style>
  </defs>
  <text class="cls-4" transform="translate(237.31 126.19)"><tspan x="0" y="0">S</tspan><tspan class="cls-1" x="50.33" y="0">A</tspan><tspan x="101.97" y="0">VE OUR EARTH</tspan></text>
  <g>
    <path class="cls-3" d="M148.29,71.33c-2.16,1.46-5.12,3.52-6.15,4.93-.53.72-1.27,4.41-3.7,4.72-.64.08-1.49.02-2.39-.03-2.42-.16-5.74-.37-6.8,2.51-.67,1.83-.79,6.78,1.39,9.35.35.41.42,1.17.18,2.02-.31,1.12-.94,1.8-1.14,1.94-.38-.22-1.13-1.09-1.63-1.68-1.22-1.42-2.75-3.19-4.72-3.74-.72-.2-1.51-.36-2.27-.52-2.14-.45-4.57-.96-5.13-2.16-.41-.88-.41-2.09-.41-3.37,0-1.62,0-3.46-.8-5.24-.31-.69-.72-1.24-1.19-1.67-5.4,5.61-8.71,13.23-8.71,21.62,0,17.22,13.96,31.19,31.19,31.19,4.21,0,8.23-.84,11.9-2.35.45-2.93-.54-5.73-.94-6.72-.9-2.18-3.85-5.91-8.78-11.09-1.32-1.38-1.23-2.45-.76-5.6l.05-.36c.32-2.16.86-3.44,8.13-4.59,3.69-.59,4.67.89,6.01,2.94.15.23.3.45.45.67,1.28,1.87,2.23,2.3,3.66,2.95.64.29,1.44.66,2.51,1.27,2.54,1.45,2.54,3.09,2.54,6.69v.41c0,1.53-.15,2.87-.38,4.03,4.25-5.33,6.8-12.09,6.8-19.44,0-12.86-7.79-23.9-18.9-28.67Z"/>
    <path class="cls-3" d="M190.07,39.64l-54.06-12.01-54.06,12.01c-3.01.67-5.15,3.34-5.15,6.42v65.71c0,13.2,6.6,25.52,17.58,32.85l41.64,27.76,41.64-27.76c10.98-7.32,17.58-19.65,17.58-32.85V46.06c0-3.08-2.14-5.75-5.15-6.42ZM136.01,138.98c-21.53,0-38.98-17.45-38.98-38.98s17.45-38.98,38.98-38.98,38.98,17.45,38.98,38.98-17.45,38.98-38.98,38.98Z"/>
    <path class="cls-2" d="M136.01,61.02c-21.53,0-38.98,17.45-38.98,38.98s17.45,38.98,38.98,38.98,38.98-17.45,38.98-38.98-17.45-38.98-38.98-38.98ZM160.4,119.44c.23-1.16.38-2.5.38-4.03v-.41c0-3.6,0-5.24-2.54-6.69-1.07-.61-1.87-.98-2.51-1.27-1.43-.65-2.38-1.08-3.66-2.95-.15-.22-.3-.44-.45-.67-1.35-2.04-2.32-3.52-6.01-2.94-7.27,1.15-7.81,2.43-8.13,4.59l-.05.36c-.47,3.15-.56,4.22.76,5.6,4.93,5.17,7.89,8.9,8.78,11.09.4.98,1.39,3.79.94,6.72-3.67,1.51-7.68,2.35-11.9,2.35-17.22,0-31.19-13.96-31.19-31.19,0-8.4,3.32-16.02,8.71-21.62.47.43.89.98,1.19,1.67.8,1.78.8,3.62.8,5.24,0,1.28,0,2.49.41,3.37.56,1.2,2.99,1.71,5.13,2.16.76.16,1.55.33,2.27.52,1.97.55,3.5,2.32,4.72,3.74.51.59,1.26,1.46,1.63,1.68.2-.14.83-.82,1.14-1.94.24-.85.17-1.61-.18-2.02-2.18-2.57-2.06-7.53-1.39-9.35,1.06-2.88,4.38-2.67,6.8-2.51.9.06,1.76.11,2.39.03,2.43-.3,3.17-3.99,3.7-4.72,1.03-1.41,3.99-3.48,6.15-4.93,11.11,4.77,18.9,15.81,18.9,28.67,0,7.35-2.54,14.11-6.8,19.44Z"/>
  </g>
</svg>